# xmcd
#
# Track frame offsets:
#  150
#  19274
#  40596
#  61144
#  84279
#  104563
#  126624
#  145392
#
# Disc length: 2261 seconds
#
# Revision: 0
# Processed by: cddbd v1.5.1PL0 Copyright (c) Steve Scherf et al.
# Submitted via: AltoMP3_Maker 3.0
#
DISCID=6b08d308
DTITLE=Monom Bakhtiari - Forozandeh
DYEAR=1900
DGENRE=
TTITLE0=Monom Bakhtiari
TTITLE1=Shahre Mo
TTITLE2=Be Yeki Begoyam
TTITLE3=Yaar
TTITLE4=Ni Ni Nai
TTITLE5=To Boodi
TTITLE6=Bi Khabar
TTITLE7=Mix
EXTD=
EXTT0=
EXTT1=
EXTT2=
EXTT3=
EXTT4=
EXTT5=
EXTT6=
EXTT7=
PLAYORDER=
